<svg width="45" height="44" viewBox="0 0 45 44" fill="none" xmlns="http://www.w3.org/2000/svg">
<path d="M30.2313 22.526C29.6453 19.405 29.3533 17.844 28.2413 16.922C27.1323 16 25.5443 16 22.3693 16H21.6473C18.4723 16 16.8843 16 15.7733 16.922C14.6623 17.844 14.3703 19.405 13.7843 22.526C12.9623 26.915 12.5503 29.109 13.7503 30.555C14.9503 32.001 17.1813 32 21.6463 32H22.3683C26.8333 32 29.0663 32 30.2653 30.555C30.9613 29.715 31.1153 28.625 30.9613 27M19.0073 16V15C19.0073 14.2044 19.3233 13.4413 19.886 12.8787C20.4486 12.3161 21.2116 12 22.0073 12C22.8029 12 23.566 12.3161 24.1286 12.8787C24.6912 13.4413 25.0073 14.2044 25.0073 15V16" stroke="#F0EDF7" stroke-width="1.5" stroke-linecap="round"/>
</svg>
